<?xml version="1.0" encoding="UTF-8" standalone="no"?>
<svg
   xmlns:dc="http://purl.org/dc/elements/1.1/"
   xmlns:cc="http://creativecommons.org/ns#"
   xmlns:rdf="http://www.w3.org/1999/02/22-rdf-syntax-ns#"
   xmlns:svg="http://www.w3.org/2000/svg"
   xmlns="http://www.w3.org/2000/svg"
   xmlns:sodipodi="http://sodipodi.sourceforge.net/DTD/sodipodi-0.dtd"
   xmlns:inkscape="http://www.inkscape.org/namespaces/inkscape"
   width="295.25439mm"
   height="49.510357mm"
   viewBox="0 0 295.25439 49.510357"
   version="1.1"
   id="svg1409"
   sodipodi:docname="Logo.svg"
   inkscape:version="1.0 (4035a4fb49, 2020-05-01)">
  <defs
     id="defs1403">
    <rect
       x="63.293064"
       y="67.37204"
       width="24.944601"
       height="6.8812699"
       id="rect13" />
    <rect
       x="63.293064"
       y="67.37204"
       width="24.944601"
       height="6.8812699"
       id="rect1394" />
  </defs>
  <sodipodi:namedview
     id="base"
     pagecolor="#ffffff"
     bordercolor="#666666"
     borderopacity="1.0"
     inkscape:pageopacity="0.0"
     inkscape:pageshadow="2"
     inkscape:zoom="0.7"
     inkscape:cx="199.00831"
     inkscape:cy="251.80219"
     inkscape:document-units="mm"
     inkscape:current-layer="layer1"
     inkscape:document-rotation="0"
     showgrid="false"
     inkscape:window-width="1360"
     inkscape:window-height="860"
     inkscape:window-x="71"
     inkscape:window-y="0"
     inkscape:window-maximized="0"
     fit-margin-top="0"
     fit-margin-left="0"
     fit-margin-right="0"
     fit-margin-bottom="0" />
  <metadata
     id="metadata1406">
    <rdf:RDF>
      <cc:Work
         rdf:about="">
        <dc:format>image/svg+xml</dc:format>
        <dc:type
           rdf:resource="http://purl.org/dc/dcmitype/StillImage" />
        <dc:title></dc:title>
      </cc:Work>
    </rdf:RDF>
  </metadata>
  <g
     inkscape:label="Layer 1"
     inkscape:groupmode="layer"
     id="layer1"
     transform="translate(33.567483,-83.103425)">
    <g
       inkscape:export-ydpi="72.673943"
       inkscape:export-xdpi="72.673943"
       aria-label="ElShadday"
       transform="matrix(24.607863,0,0,24.607863,-1558.8692,-1581.5813)"
       id="text11"
       style="font-style:normal;font-variant:normal;font-weight:normal;font-stretch:normal;font-size:2.06438px;line-height:1.25;font-family:sans-serif;-inkscape-font-specification:Taurus;white-space:pre;shape-inside:url(#rect13);fill:#ffff00;fill-opacity:1;stroke:none;stroke-width:0.264583">
      <path
         d="m 64.310708,67.997034 h -0.481 v 0.260112 h 0.456227 v 0.342687 h -0.456227 v 0.26837 h 0.481 v 0.342687 h -0.885619 v -1.556543 h 0.885619 z"
         style="font-style:normal;font-variant:normal;font-weight:normal;font-stretch:normal;font-size:2.06438px;font-family:Futura-Bold;-inkscape-font-specification:Futura-Bold;fill:#ffff00;stroke:none"
         id="path1481" />
      <path
         d="m 64.58119,69.21089 v -1.562397 h 0.286272 v 1.562397 z"
         style="font-style:normal;font-variant:normal;font-weight:normal;font-stretch:normal;font-family:'Futura Hv BT';-inkscape-font-specification:'Futura Hv BT';fill:#ffff00;stroke:none"
         id="path1483" />
      <path
         d="m 65.089221,69.023402 0.175392,-0.198575 q 0.03326,0.08165 0.106848,0.129023 0.07358,0.04637 0.165311,0.04637 0.11088,0 0.175392,-0.05242 0.06451,-0.05241 0.06451,-0.141119 0,-0.104832 -0.214704,-0.208656 -0.06955,-0.03326 -0.109871,-0.05443 -0.193536,-0.1008 -0.268128,-0.196559 -0.07459,-0.09677 -0.07459,-0.229824 0,-0.182448 0.144144,-0.299375 0.145152,-0.117936 0.375983,-0.117936 0.134064,0 0.230832,0.04738 0.09778,0.04637 0.172367,0.146159 l -0.186479,0.178416 q -0.03326,-0.06451 -0.0887,-0.09576 -0.05443,-0.03226 -0.132048,-0.03226 -0.09374,0 -0.1512,0.04738 -0.05746,0.04637 -0.05746,0.12096 0,0.116928 0.227807,0.213696 0.04536,0.01915 0.06955,0.03024 0.187488,0.08568 0.277199,0.193535 0.09072,0.107856 0.09072,0.245952 0,0.207647 -0.142127,0.331631 -0.14112,0.122976 -0.380016,0.122976 -0.169343,0 -0.290303,-0.05846 -0.12096,-0.05846 -0.180432,-0.168336 z"
         style="font-style:normal;font-variant:normal;font-weight:normal;font-stretch:normal;font-family:'Futura Hv BT';-inkscape-font-specification:'Futura Hv BT';fill:#ffff00;stroke:none"
         id="path1485" />
      <path
         d="m 66.315955,69.21089 v -1.562397 h 0.281231 V 68.2039 q 0,0.04637 -0.003,0.09274 -0.003,0.04536 -0.0091,0.0887 0.0887,-0.103824 0.177408,-0.150192 0.08971,-0.04637 0.199584,-0.04637 0.114911,0 0.193535,0.03931 0.07963,0.03931 0.122976,0.117936 0.02218,0.04133 0.03125,0.09374 0.01008,0.05141 0.01008,0.162288 v 0.03125 0.577583 H 67.03264 v -0.488879 q 0,-0.182448 -0.04234,-0.240912 -0.04234,-0.05846 -0.145152,-0.05846 -0.05947,0 -0.109872,0.0252 -0.04939,0.02419 -0.08266,0.06955 -0.02621,0.03528 -0.0383,0.08064 -0.01109,0.04536 -0.01109,0.138096 v 0.03931 0.435455 z"
         style="font-style:normal;font-variant:normal;font-weight:normal;font-stretch:normal;font-family:'Futura Hv BT';-inkscape-font-specification:'Futura Hv BT';fill:#ffff00;stroke:none"
         id="path1487" />
      <path
         d="m 68.322879,68.714955 q 0,-0.133056 -0.06754,-0.210672 -0.06653,-0.07762 -0.180431,-0.07762 -0.116928,0 -0.184464,0.07762 -0.06653,0.07661 -0.06653,0.210672 0,0.134064 0.06552,0.208655 0.06653,0.07459 0.183456,0.07459 0.118943,0 0.184463,-0.07459 0.06552,-0.07459 0.06552,-0.208655 z m 0.26208,0.495935 h -0.278208 l 0.004,-0.142128 q -0.05846,0.09374 -0.14112,0.138096 -0.08165,0.04334 -0.199583,0.04334 -0.19656,0 -0.31752,-0.14616 -0.119951,-0.14616 -0.119951,-0.386063 0,-0.249984 0.117935,-0.389087 0.118944,-0.140112 0.329616,-0.140112 0.109871,0 0.192527,0.04939 0.08366,0.04939 0.140112,0.147168 v -0.163296 h 0.27216 z"
         style="font-style:normal;font-variant:normal;font-weight:normal;font-stretch:normal;font-family:'Futura Hv BT';-inkscape-font-specification:'Futura Hv BT';fill:#ffff00;stroke:none"
         id="path1489" />
      <path
         d="m 69.584892,68.714955 q 0,-0.133056 -0.06753,-0.210672 -0.06653,-0.07762 -0.180432,-0.07762 -0.116928,0 -0.184464,0.07661 -0.06653,0.0756 -0.06653,0.209664 0,0.134064 0.06552,0.209663 0.06653,0.0756 0.183456,0.0756 0.118944,0 0.184464,-0.07459 0.06552,-0.07459 0.06552,-0.208655 z m 0.26208,0.495935 h -0.278208 l 0.004,-0.142128 q -0.05846,0.09374 -0.141119,0.138096 -0.08165,0.04334 -0.199584,0.04334 -0.196559,0 -0.317519,-0.14616 -0.119952,-0.14616 -0.119952,-0.386063 0,-0.250992 0.117936,-0.391103 0.118944,-0.140112 0.329615,-0.140112 0.107856,0 0.189504,0.04939 0.08165,0.04939 0.153215,0.156239 -0.005,-0.03629 -0.0081,-0.07963 -0.002,-0.04435 -0.002,-0.1008 v -0.563471 h 0.27216 z"
         style="font-style:normal;font-variant:normal;font-weight:normal;font-stretch:normal;font-family:'Futura Hv BT';-inkscape-font-specification:'Futura Hv BT';fill:#ffff00"
         id="path1491" />
      <path
         d="m 70.859002,68.714955 q 0,-0.133056 -0.06754,-0.210672 -0.06653,-0.07762 -0.180432,-0.07762 -0.116927,0 -0.184463,0.07661 -0.06653,0.0756 -0.06653,0.209664 0,0.134064 0.06552,0.209663 0.06653,0.0756 0.183455,0.0756 0.118944,0 0.184464,-0.07459 0.06552,-0.07459 0.06552,-0.208655 z m 0.262079,0.495935 h -0.278207 l 0.004,-0.142128 q -0.05846,0.09374 -0.14112,0.138096 -0.08165,0.04334 -0.199583,0.04334 -0.19656,0 -0.31752,-0.14616 -0.119952,-0.14616 -0.119952,-0.386063 0,-0.250992 0.117936,-0.391103 0.118944,-0.140112 0.329615,-0.140112 0.107856,0 0.189504,0.04939 0.08165,0.04939 0.153216,0.156239 -0.005,-0.03629 -0.0081,-0.07963 -0.002,-0.04435 -0.002,-0.1008 v -0.563471 h 0.272159 z"
         style="font-style:normal;font-variant:normal;font-weight:normal;font-stretch:normal;font-family:'Futura Hv BT';-inkscape-font-specification:'Futura Hv BT';fill:#ffff00"
         id="path1493" />
      <path
         d="m 72.133112,68.714955 q 0,-0.133056 -0.06754,-0.210672 -0.06653,-0.07762 -0.180432,-0.07762 -0.116928,0 -0.184463,0.07762 -0.06653,0.07661 -0.06653,0.210672 0,0.134064 0.06552,0.208655 0.06653,0.07459 0.183455,0.07459 0.118944,0 0.184464,-0.07459 0.06552,-0.07459 0.06552,-0.208655 z m 0.262079,0.495935 h -0.278207 l 0.004,-0.142128 q -0.05846,0.09374 -0.14112,0.138096 -0.08165,0.04334 -0.199584,0.04334 -0.196559,0 -0.317519,-0.14616 -0.119952,-0.14616 -0.119952,-0.386063 0,-0.249984 0.117936,-0.389087 0.118944,-0.140112 0.329615,-0.140112 0.109872,0 0.192528,0.04939 0.08366,0.04939 0.140112,0.147168 v -0.163296 h 0.272159 z"
         style="font-style:normal;font-variant:normal;font-weight:normal;font-stretch:normal;font-family:'Futura Hv BT';-inkscape-font-specification:'Futura Hv BT';fill:#ffff00;stroke:none"
         id="path1495" />
      <path
         d="m 72.910278,69.134282 -0.398159,-0.912238 h 0.331631 l 0.17136,0.452591 q 0.01714,0.04234 0.02822,0.09778 0.01109,0.05443 0.01714,0.121968 0.01008,-0.05443 0.0252,-0.11088 0.01512,-0.05645 0.0373,-0.119952 l 0.150191,-0.441503 h 0.328608 l -0.588671,1.438413 h -0.31752 z"
         style="font-style:normal;font-variant:normal;font-weight:normal;font-stretch:normal;font-family:'Futura Hv BT';-inkscape-font-specification:'Futura Hv BT';fill:#ffff00;stroke:none"
         id="path1497" />
    </g>
    <path
       inkscape:export-ydpi="72.673943"
       inkscape:export-xdpi="72.673943"
       id="path1348"
       d="M -33.567483,100.38415 V 121.5508 H -9.7549663 V 100.38415 Z"
       style="font-style:normal;font-variant:normal;font-weight:normal;font-stretch:normal;font-size:10.5833px;line-height:1.25;font-family:Taurus;-inkscape-font-specification:Taurus;fill:#ffffff;fill-opacity:1;stroke:none;stroke-width:0.264583px;stroke-linecap:butt;stroke-linejoin:miter;stroke-opacity:1" />
  </g>
</svg>
