<?xml version="1.0" standalone="no"?>
<!DOCTYPE svg PUBLIC "-//W3C//DTD SVG 20010904//EN"
 "http://www.w3.org/TR/2001/REC-SVG-20010904/DTD/svg10.dtd">
<svg version="1.0" xmlns="http://www.w3.org/2000/svg"
 width="512.000000pt" height="512.000000pt" viewBox="0 0 512.000000 512.000000"
 preserveAspectRatio="xMidYMid meet">
<metadata>
Created by potrace 1.11, written by Peter Selinger 2001-2013
</metadata>
<g transform="translate(0.000000,512.000000) scale(0.100000,-0.100000)"
fill="#000000" stroke="none">
<path d="M1590 4936 c0 -2 8 -10 18 -17 15 -13 16 -12 3 4 -13 16 -21 21 -21
13z"/>
<path d="M2550 4936 c0 -2 8 -10 18 -17 15 -13 16 -12 3 4 -13 16 -21 21 -21
13z"/>
<path d="M3510 4936 c0 -2 8 -10 18 -17 15 -13 16 -12 3 4 -13 16 -21 21 -21
13z"/>
<path d="M1345 4920 c-3 -6 1 -7 9 -4 18 7 21 14 7 14 -6 0 -13 -4 -16 -10z"/>
<path d="M2305 4920 c-3 -6 1 -7 9 -4 18 7 21 14 7 14 -6 0 -13 -4 -16 -10z"/>
<path d="M3265 4920 c-3 -6 1 -7 9 -4 18 7 21 14 7 14 -6 0 -13 -4 -16 -10z"/>
<path d="M1217 4903 c-4 -3 -2 -12 3 -18 8 -9 1 -12 -27 -11 -21 1 -44 5 -52
10 -9 6 -12 5 -8 -1 3 -5 -14 -9 -43 -9 -32 -1 -47 3 -43 10 4 8 3 8 -6 0 -6
-5 -12 -36 -12 -67 -1 -31 -5 -55 -8 -52 -4 2 -13 -1 -21 -7 -12 -8 -12 -9 2
-4 20 6 34 -10 16 -17 -10 -4 -10 -6 0 -6 6 -1 12 -6 12 -12 0 -5 -6 -7 -12
-3 -10 6 -10 4 -2 -7 15 -20 15 -59 1 -59 -8 0 -9 -3 -1 -8 14 -9 14 -73 0
-65 -6 3 -5 0 2 -8 14 -16 16 -33 2 -24 -5 3 -10 1 -10 -4 0 -6 5 -11 10 -11
14 0 12 -27 -2 -33 -10 -4 -10 -6 0 -6 6 -1 12 -6 12 -11 0 -12 -22 -9 -32 5
-5 7 -8 6 -8 0 0 -7 -53 -11 -147 -12 -164 -2 -213 -7 -293 -30 -281 -80 -504
-365 -537 -683 -8 -83 -8 -2422 0 -2475 4 -22 9 -51 12 -65 3 -14 7 -35 9 -47
10 -48 75 -193 112 -248 109 -164 261 -275 439 -321 66 -16 184 -17 1960 -17
1040 0 1909 3 1933 6 23 4 74 18 113 31 193 67 357 227 445 436 69 165 66 100
66 1465 1 1309 1 1289 -49 1429 -90 252 -279 433 -518 495 -63 17 -111 21
-275 21 -175 1 -199 3 -205 18 -3 9 -1 18 4 20 6 2 8 9 5 14 -10 16 -12 121
-3 139 5 10 3 21 -4 28 -9 9 -8 14 3 21 8 5 11 10 5 10 -6 0 -10 31 -9 75 l1
75 -37 0 c-20 0 -42 6 -49 13 -11 10 -13 10 -7 0 4 -7 2 -13 -3 -13 -6 0 -11
6 -11 13 0 8 -3 8 -8 1 -10 -14 -143 -15 -135 0 3 6 0 5 -8 -1 -15 -15 -33
-18 -25 -5 3 5 -1 9 -9 9 -8 0 -12 -4 -9 -9 8 -13 -10 -10 -25 5 -9 8 -12 8
-7 0 4 -8 -4 -11 -26 -9 -18 1 -33 7 -33 13 0 6 -3 15 -7 19 -4 3 -6 -3 -3
-15 4 -24 -5 -27 -24 -8 -8 6 -11 7 -8 1 4 -7 -12 -11 -48 -11 -36 0 -52 4
-48 11 4 6 -1 5 -11 -3 -14 -12 -19 -12 -26 -2 -6 11 -9 11 -13 0 -4 -12 -7
-11 -16 1 -6 8 -11 10 -11 4 0 -13 -89 -13 -109 0 -10 6 -12 6 -7 -2 4 -7 1
-12 -9 -12 -10 0 -14 5 -9 13 6 10 4 10 -7 0 -16 -16 -33 -17 -23 -1 5 8 3 8
-7 2 -8 -5 -31 -10 -52 -10 -33 -2 -36 0 -25 15 10 13 9 13 -8 -1 -24 -21 -38
-23 -28 -5 6 9 5 9 -7 0 -16 -13 -36 -12 -58 1 -10 6 -12 5 -7 -2 4 -7 1 -12
-9 -12 -10 0 -14 5 -9 13 6 10 4 10 -7 0 -7 -7 -17 -13 -22 -13 -4 0 -5 6 -1
13 5 7 1 7 -10 -2 -14 -12 -19 -12 -26 -2 -6 11 -9 11 -13 0 -4 -12 -7 -11
-16 1 -6 8 -11 10 -11 4 0 -6 -21 -10 -52 -10 -33 1 -53 5 -53 13 0 6 -3 15
-7 19 -4 3 -6 -3 -3 -15 4 -24 -5 -27 -24 -8 -11 10 -13 10 -7 0 4 -7 3 -13
-1 -13 -5 0 -15 6 -22 13 -11 10 -13 10 -7 0 4 -7 3 -13 -1 -13 -5 0 -15 6
-22 13 -9 8 -12 8 -7 0 4 -8 -4 -11 -26 -9 -18 1 -33 7 -33 13 0 6 -3 15 -7
19 -4 3 -6 -3 -3 -15 4 -24 -5 -27 -24 -8 -8 6 -11 7 -8 1 4 -7 -12 -11 -48
-11 -36 0 -52 4 -48 11 4 6 -1 5 -11 -3 -14 -12 -19 -12 -26 -2 -6 11 -9 11
-13 0 -4 -12 -7 -11 -16 1 -6 8 -11 10 -11 4 0 -13 -89 -13 -109 0 -10 6 -12
6 -7 -2 4 -7 1 -12 -9 -12 -10 0 -14 5 -9 13 6 10 4 10 -7 0 -16 -16 -33 -17
-23 -1 5 8 3 8 -7 2 -8 -5 -31 -10 -52 -10 -33 -2 -36 0 -25 15 10 13 9 13 -8
-1 -24 -21 -38 -23 -28 -5 6 9 5 9 -7 0 -16 -13 -36 -12 -58 1 -10 6 -12 5 -7
-2 4 -7 1 -12 -9 -12 -10 0 -14 5 -9 13 6 10 4 10 -7 0 -7 -7 -17 -13 -22 -13
-4 0 -5 6 -1 13 5 7 1 7 -10 -2 -14 -12 -19 -12 -26 -2 -6 11 -9 11 -13 0 -4
-12 -7 -11 -16 1 -6 8 -11 10 -11 4 0 -6 -21 -10 -52 -10 -33 1 -53 5 -53 13
0 6 -3 15 -7 19 -4 3 -6 -3 -3 -15 4 -24 -5 -27 -24 -8 -11 10 -13 10 -7 0 4
-7 3 -13 -1 -13 -5 0 -15 6 -22 13 -11 10 -13 10 -7 0 4 -7 3 -13 -1 -13 -5 0
-15 6 -22 13 -9 8 -12 8 -7 0 4 -8 -4 -11 -26 -9 -18 1 -33 7 -33 13 0 6 -3
15 -7 19 -4 3 -6 -3 -3 -15 4 -24 -5 -27 -24 -8 -8 6 -11 7 -8 1 4 -7 -12 -11
-48 -11 -36 0 -52 4 -48 11 4 6 -1 5 -11 -3 -14 -12 -19 -12 -26 -2 -6 11 -9
11 -13 0 -4 -12 -7 -11 -16 1 -6 8 -11 10 -11 4 0 -13 -89 -13 -109 0 -10 6
-12 6 -7 -2 4 -7 1 -12 -9 -12 -10 0 -14 5 -9 13 6 10 4 10 -7 0 -7 -7 -17
-13 -22 -13 -4 0 -5 6 -1 13 6 9 4 9 -7 1 -16 -13 -78 -13 -98 0 -10 6 -12 6
-7 -2 4 -7 3 -12 -2 -12 -14 0 -33 26 -25 33 3 4 4 7 1 7 -2 0 -8 -3 -11 -7z"/>
<path d="M1307 4899 c7 -7 15 -10 18 -7 3 3 -2 9 -12 12 -14 6 -15 5 -6 -5z"/>
<path d="M1495 4900 c-3 -5 -1 -10 4 -10 6 0 11 5 11 10 0 6 -2 10 -4 10 -3 0
-8 -4 -11 -10z"/>
<path d="M1650 4900 c0 -5 5 -10 11 -10 5 0 7 5 4 10 -3 6 -8 10 -11 10 -2 0
-4 -4 -4 -10z"/>
<path d="M1975 4900 c-3 -5 -1 -10 4 -10 6 0 11 5 11 10 0 6 -2 10 -4 10 -3 0
-8 -4 -11 -10z"/>
<path d="M2267 4899 c7 -7 15 -10 18 -7 3 3 -2 9 -12 12 -14 6 -15 5 -6 -5z"/>
<path d="M2455 4900 c-3 -5 -1 -10 4 -10 6 0 11 5 11 10 0 6 -2 10 -4 10 -3 0
-8 -4 -11 -10z"/>
<path d="M2610 4900 c0 -5 5 -10 11 -10 5 0 7 5 4 10 -3 6 -8 10 -11 10 -2 0
-4 -4 -4 -10z"/>
<path d="M2935 4900 c-3 -5 -1 -10 4 -10 6 0 11 5 11 10 0 6 -2 10 -4 10 -3 0
-8 -4 -11 -10z"/>
<path d="M3227 4899 c7 -7 15 -10 18 -7 3 3 -2 9 -12 12 -14 6 -15 5 -6 -5z"/>
<path d="M3415 4900 c-3 -5 -1 -10 4 -10 6 0 11 5 11 10 0 6 -2 10 -4 10 -3 0
-8 -4 -11 -10z"/>
<path d="M3570 4900 c0 -5 5 -10 11 -10 5 0 7 5 4 10 -3 6 -8 10 -11 10 -2 0
-4 -4 -4 -10z"/>
<path d="M996 4853 c-6 -14 -5 -15 5 -6 7 7 10 15 7 18 -3 3 -9 -2 -12 -12z"/>
<path d="M976 4813 c-6 -14 -5 -15 5 -6 7 7 10 15 7 18 -3 3 -9 -2 -12 -12z"/>
<path d="M981 4714 c0 -11 3 -14 6 -6 3 7 2 16 -1 19 -3 4 -6 -2 -5 -13z"/>
<path d="M997 4674 c-13 -18 -14 -22 -3 -18 8 3 17 13 20 21 10 25 3 23 -17
-3z"/>
<path d="M954 4629 c-3 -6 4 -21 17 -33 l23 -21 -18 22 c-10 12 -15 27 -11 32
3 6 4 11 1 11 -3 0 -8 -5 -12 -11z"/>
<path d="M956 4542 c-3 -5 1 -9 9 -9 8 0 12 4 9 9 -3 4 -7 8 -9 8 -2 0 -6 -4
-9 -8z"/>
<path d="M995 4510 c-3 -6 1 -7 9 -4 18 7 21 14 7 14 -6 0 -13 -4 -16 -10z"/>
</g>
</svg>
